<?xml version="1.0" standalone="no"?>
<!DOCTYPE svg PUBLIC "-//W3C//DTD SVG 20010904//EN"
 "http://www.w3.org/TR/2001/REC-SVG-20010904/DTD/svg10.dtd">
<svg version="1.0" xmlns="http://www.w3.org/2000/svg"
 width="80.000000pt" height="80.000000pt" viewBox="0 0 80.000000 80.000000"
 preserveAspectRatio="xMidYMid meet">
<metadata>
Created by potrace 1.14, written by Peter Selinger 2001-2017
</metadata>
<g transform="translate(0.000000,80.000000) scale(0.100000,-0.100000)"
fill="#000000" stroke="none">
<path d="M320 783 c-55 -11 -147 -62 -193 -108 -26 -26 -61 -77 -79 -112 -54
-111 -47 -265 18 -370 60 -97 174 -171 276 -181 l59 -5 -12 26 c-9 19 -22 29
-48 33 -88 16 -194 94 -235 171 -18 36 -42 131 -40 160 6 88 38 171 86 224
146 161 404 144 527 -35 51 -74 75 -189 51 -250 -9 -25 -12 -26 -105 -26 -52
0 -95 3 -95 8 0 4 10 18 23 32 67 75 107 130 107 149 0 23 2 23 -127 23 -78 0
-85 -2 -125 -33 -24 -18 -49 -37 -55 -42 -10 -7 -17 0 -27 25 -17 39 -33 53
-60 53 -15 0 -31 -28 -74 -129 -33 -79 -50 -132 -45 -137 16 -16 63 8 111 57
25 24 48 41 52 37 4 -4 37 -84 75 -176 l68 -169 36 7 c81 14 170 72 224 146
34 45 34 49 -2 49 -22 0 -37 -10 -62 -39 -34 -41 -113 -91 -145 -91 -14 0 -27
21 -54 88 -19 48 -49 121 -67 162 l-32 75 34 35 c34 35 35 35 110 32 41 -2 75
-7 75 -10 0 -4 -19 -27 -41 -52 -86 -93 -110 -141 -76 -152 28 -8 307 -2 317
8 16 16 26 123 18 190 -24 215 -244 368 -468 327z m150 -266 c0 -2 -10 -12
-22 -23 l-23 -19 19 23 c18 21 26 27 26 19z m-194 -125 c-21 -22 -29 -10 -15
22 11 23 14 25 22 10 6 -11 4 -21 -7 -32z"/>
</g>
</svg>
